<svg width="128" height="127" viewBox="0 0 128 127" fill="none" xmlns="http://www.w3.org/2000/svg">
<path fill-rule="evenodd" clip-rule="evenodd" d="M85.1094 114.052C83.4947 114.735 81.8334 115.339 80.14 115.869C80.0827 116.125 80 116.369 79.9374 116.62C79.188 119.672 77.9947 122.541 76.4374 125.183C76.3227 125.375 76.224 125.579 76.1094 125.765C76.2507 125.74 76.3907 125.719 76.5307 125.693C78.2134 125.349 79.86 124.921 81.4894 124.448C81.604 124.245 81.6934 124.031 81.8027 123.828C83.2814 121.052 84.3387 118.031 84.9427 114.855C84.9947 114.584 85.068 114.323 85.1094 114.052Z" fill="white"/>
<path fill-rule="evenodd" clip-rule="evenodd" d="M74.1094 117.36C72.5267 117.661 70.9214 117.912 69.292 118.073C67.4587 118.255 65.604 118.355 63.724 118.355C63.104 118.355 62.4947 118.323 61.88 118.307C61.6667 118.531 61.4374 118.745 61.2187 118.964C58.2027 121.973 54.3334 124.109 49.9787 125C49.6147 125.079 49.2547 125.161 48.8854 125.219C53.172 126.251 57.6307 126.839 62.2027 126.948C62.7134 126.959 63.2187 126.984 63.7347 126.984C64.7347 126.984 65.724 126.959 66.7134 126.912C66.9694 126.724 67.224 126.541 67.4734 126.344C67.4787 126.339 67.4894 126.333 67.5 126.328C69.9894 123.953 72.0734 121.172 73.6974 118.109C73.8334 117.86 73.984 117.62 74.1147 117.364L74.1094 117.36Z" fill="white"/>
<path fill-rule="evenodd" clip-rule="evenodd" d="M63.5987 0C62.484 0 61.38 0.0306667 60.2867 0.088C50.964 0.562667 42.172 3.052 34.328 7.104C32.312 8.14 30.3547 9.28133 28.4733 10.5213C28.1827 10.7187 27.8853 10.912 27.5933 11.1093C27.2867 11.3227 26.984 11.5413 26.6827 11.7547C23.0413 14.364 19.6827 17.3387 16.672 20.6507C6.40668 31.948 0.140015 46.9533 0.140015 63.3907C0.140015 75.7293 3.68801 87.2453 9.79201 97C10.9213 98.7653 12.1307 100.473 13.4213 102.115C18.0827 108.031 23.7653 113.109 30.224 117.073C30.6507 117.333 31.0827 117.584 31.516 117.833C32.12 118.131 32.7453 118.38 33.3747 118.579C34.464 118.921 35.588 119.12 36.74 119.197C38.5733 119.317 40.464 119.177 42.3387 118.885C44.5573 118.536 46.8493 117.901 49.156 117.156C49.604 117.011 50.0467 116.901 51.2293 116.495C52.412 116.083 54.3333 115.355 56.2507 114.531C59.9373 112.948 63.568 111.125 66.932 109.276C68.4067 108.469 69.7453 107.672 71.0933 106.869C72.6093 105.964 74.104 105.068 75.4013 104.224C76.188 103.708 76.7813 103.276 77.4734 102.797C77.6827 102.651 77.9013 102.505 78.0987 102.364C78.5933 102.016 79.224 101.615 79.656 101.297C79.7347 101.24 79.7973 101.183 79.8747 101.125C81.36 100.016 82.588 98.984 83.6147 97.932C84.188 97.344 84.724 96.7453 85.1773 96.1147C85.2813 95.9787 85.3547 95.812 85.448 95.6667C86.5787 93.9067 87.2347 91.6933 86.9067 89.6667C86.1933 85.2813 83.416 83.5267 81.3173 81.0213C77.5053 76.4693 70.8227 69.964 64.3907 62.9067C63.1453 61.5413 61.9213 60.156 60.7187 58.76C59.9733 57.9013 59.2293 57.036 58.516 56.172C56.0827 53.208 54.0733 50.464 52.4213 47.9427C51.6307 46.7453 50.9427 45.6147 50.3027 44.5213C48.7547 42.4587 47.5467 40.1307 46.7867 37.5933C46.1667 35.536 45.828 33.36 45.828 31.0933C45.828 18.688 55.792 8.724 68.2027 8.724C68.8693 8.724 69.5307 8.77067 70.188 8.828H70.1933C70.1973 8.828 70.208 8.828 70.208 8.828H70.2133C70.2347 8.828 70.2507 8.828 70.2707 8.828C70.5733 8.85467 70.864 8.90667 71.1667 8.948C71.9947 9.05733 72.8173 9.188 73.636 9.33867C79.1827 10.344 84.432 12.172 89.26 14.7027C89.4893 14.8227 89.7187 14.932 89.9427 15.0573C92.9947 16.708 95.864 18.6453 98.5307 20.828C98.588 20.8747 98.6507 20.9173 98.7134 20.9693C110.921 31.036 118.693 46.2867 118.693 63.3907C118.693 73.844 115.787 83.604 110.74 91.9173C110.281 92.672 109.807 93.412 109.312 94.14C106.355 98.5267 102.781 102.459 98.7134 105.812C96.0054 108.047 93.0733 110.027 89.964 111.719C89.9693 111.812 89.9787 111.907 89.9787 112C89.9787 112.172 89.9587 112.344 89.9533 112.516C89.9013 115.615 89.396 118.599 88.516 121.432C88.4533 121.625 88.4067 121.833 88.3387 122.027C111.219 112.385 127.323 89.74 127.323 63.3907C127.323 61.828 127.229 60.2813 127.109 58.7493C127.088 58.4693 127.063 58.1827 127.036 57.9013C126.645 53.2507 125.755 48.7347 124.396 44.4213C116.317 18.708 92.1253 0 63.5987 0ZM127.036 57.9013C127.052 58.0267 127.068 58.1453 127.079 58.2707C127.036 57.776 126.995 57.276 126.943 56.7813C126.984 57.156 127.005 57.5307 127.036 57.9013ZM69.9734 8.80267C70.036 8.812 70.0987 8.81733 70.156 8.82267L69.9734 8.80267Z" fill="white"/>
</svg>
